<?xml version="1.0" encoding="utf-8"?>
<!-- Generator: Adobe Illustrator 19.2.1, SVG Export Plug-In . SVG Version: 6.00 Build 0)  -->
<svg version="1.1" id="Calque_1" xmlns="http://www.w3.org/2000/svg" xmlns:xlink="http://www.w3.org/1999/xlink" x="0px" y="0px"
	 viewBox="0 0 45 45" style="enable-background:new 0 0 45 45;" xml:space="preserve">
<style type="text/css">
	.st0{fill:none;}
	.st1{stroke:#000000;stroke-miterlimit:10;}
	.st2{font-family:'MyriadPro-Regular';}
	.st3{font-size:18px;}
</style>
<rect x="3.4" y="0.9" class="st0" width="21.7" height="14.4"/>
<text transform="matrix(1 0 0 1 10.5965 13.7236)" class="st1 st2 st3">?</text>
<rect x="3.1" y="31" class="st0" width="21.7" height="14.4"/>
<text transform="matrix(1 0 0 1 10.2632 43.7353)" class="st1 st2 st3">?</text>
<rect x="3.4" y="15.9" class="st0" width="21.7" height="14.4"/>
<text transform="matrix(1 0 0 1 10.5965 28.7295)" class="st1 st2 st3">?</text>
<rect x="20.2" y="0.9" class="st0" width="21.7" height="14.4"/>
<text transform="matrix(1 0 0 1 27.4299 13.7236)" class="st1 st2 st3">?</text>
<rect x="19.9" y="31" class="st0" width="21.7" height="14.4"/>
<text transform="matrix(1 0 0 1 27.0965 43.7353)" class="st1 st2 st3">?</text>
<rect x="20.2" y="15.9" class="st0" width="21.7" height="14.4"/>
<text transform="matrix(1 0 0 1 27.4299 28.7295)" class="st1 st2 st3">?</text>
</svg>
