<?xml version="1.0" encoding="utf-8"?>
<!-- Generator: Adobe Illustrator 19.2.1, SVG Export Plug-In . SVG Version: 6.00 Build 0)  -->
<svg version="1.1" id="Calque_1" xmlns="http://www.w3.org/2000/svg" xmlns:xlink="http://www.w3.org/1999/xlink" x="0px" y="0px"
	 viewBox="0 0 45 45" style="enable-background:new 0 0 45 45;" xml:space="preserve">
<style type="text/css">
	.st0{fill:none;}
	.st1{stroke:#000000;stroke-miterlimit:10;}
	.st2{font-family:'MyriadPro-Regular';}
	.st3{font-size:15.909px;}
	.st4{fill:none;stroke:#000000;stroke-width:2;stroke-miterlimit:10;}
</style>
<rect x="7.6" y="3.9" class="st0" width="19.2" height="12.8"/>
<text transform="matrix(1 0 0 1 13.9619 15.1557)" class="st1 st2 st3">?</text>
<rect x="7.6" y="28.4" class="st0" width="19.2" height="12.8"/>
<text transform="matrix(1 0 0 1 13.9619 39.6816)" class="st1 st2 st3">?</text>
<line class="st4" x1="4.6" y1="2.6" x2="4.7" y2="42.8"/>
<line class="st4" x1="11.7" y1="1.8" x2="3.5" y2="1.8"/>
<line class="st4" x1="11.8" y1="43.4" x2="3.7" y2="43.4"/>
<line class="st4" x1="41.2" y1="2.5" x2="41.1" y2="42.7"/>
<line class="st4" x1="34.1" y1="1.7" x2="42.2" y2="1.7"/>
<line class="st4" x1="33.9" y1="43.3" x2="42.1" y2="43.3"/>
<rect x="20.7" y="3.9" class="st0" width="19.2" height="12.8"/>
<text transform="matrix(1 0 0 1 27.0413 15.1557)" class="st1 st2 st3">?</text>
<rect x="20.7" y="28.4" class="st0" width="19.2" height="12.8"/>
<text transform="matrix(1 0 0 1 27.0413 39.6825)" class="st1 st2 st3">?</text>
</svg>
