<?xml version="1.0" encoding="utf-8"?>
<!-- Generator: Adobe Illustrator 19.2.1, SVG Export Plug-In . SVG Version: 6.00 Build 0)  -->
<svg version="1.1" id="Calque_1" xmlns="http://www.w3.org/2000/svg" xmlns:xlink="http://www.w3.org/1999/xlink" x="0px" y="0px"
	 viewBox="0 0 45 45" style="enable-background:new 0 0 45 45;" xml:space="preserve">
<style type="text/css">
	.st0{fill:none;}
	.st1{stroke:#000000;stroke-miterlimit:10;}
	.st2{font-family:'MyriadPro-Regular';}
	.st3{font-size:15.909px;}
	.st4{font-size:40px;}
</style>
<rect x="5.9" y="7.6" class="st0" width="19.2" height="12.8"/>
<text transform="matrix(1 0 0 1 12.3082 18.8519)" class="st1 st2 st3">?</text>
<rect x="19" y="7.6" class="st0" width="19.2" height="12.8"/>
<text transform="matrix(1 0 0 1 25.3876 18.8519)" class="st1 st2 st3">?</text>
<rect x="-2.2" y="5.3" class="st0" width="11.6" height="28.7"/>
<text transform="matrix(1 0 0 1 -2.1949 33.7066)" class="st2 st4">(</text>
<rect x="33.9" y="5.3" class="st0" width="15.1" height="39"/>
<text transform="matrix(1 0 0 1 33.867 33.7069)" class="st2 st4">)</text>
<rect x="5.4" y="25.3" class="st0" width="19.2" height="12.8"/>
<text transform="matrix(1 0 0 1 11.7306 36.6019)" class="st1 st2 st3">?</text>
<rect x="18.4" y="25.3" class="st0" width="19.2" height="12.8"/>
<text transform="matrix(1 0 0 1 24.81 36.6019)" class="st1 st2 st3">?</text>
</svg>
